<svg xmlns="http://www.w3.org/2000/svg" xmlns:xlink="http://www.w3.org/1999/xlink" xmlns:inkscape="http://www.inkscape.org/namespaces/inkscape" version="1.1" width="841.89" height="595.276" viewBox="0 0 841.89 595.276">
<defs>
<clipPath id="clip_1">
<path transform="matrix(1,0,0,-1,0,595.276)" d="M0 595.276H841.89V0H0Z"/>
</clipPath>
</defs>
<g inkscape:groupmode="layer" inkscape:label="Layer 1">
<path transform="matrix(1,0,0,-1,195.9846,246.9386)" d="M0 0 23.917 55.952 47.673 0ZM34.12 67.142H13.713L-33-40.161H-16.898L-5.259-12.876H53.093L64.571-40.161H80.833Z" fill="#231f20"/>
<path transform="matrix(1,0,0,-1,372.1576,273.7637)" d="M0 0H-68.238V93.967H-82.905V-13.336H0Z" fill="#231f20"/>
<path transform="matrix(1,0,0,-1,469.0931,273.7637)" d="M0 0H-65.528V35.563H-6.376V48.899H-65.528V80.63H-1.596V93.967H-80.195V-13.336H0Z" fill="#231f20"/>
<g clip-path="url(#clip_1)">
<path transform="matrix(1,0,0,-1,521.2259,288.6334)" d="M0 0C26.627 0 37.627 17.629 37.627 37.404V108.837H22.96V40.009C22.96 22.688 15.305 13.336 0 13.336-14.506 13.336-24.074 22.074-24.074 34.797-24.074 40.163-22.8 44.914-20.407 49.053L-34.278 54.112C-37.305 48.746-38.741 42.616-38.741 35.564-38.741 14.87-24.074 0 0 0" fill="#231f20"/>
<path transform="matrix(1,0,0,-1,621.9885,190.987)" d="M0 0 23.756-55.952H-23.917ZM-29.176-68.828H29.176L40.654-96.113H56.917L10.204 11.19H-10.203L-56.917-96.113H-40.815Z" fill="#231f20"/>
<path transform="matrix(1,0,0,-1,200.788,402.60169)" d="M0 0H-24.723V81.548H0C23.983 81.548 37.374 65.452 37.374 40.313 37.374 17.013 23.983 0 0 0M0 94.425H-38.259V-12.878H0C32.223-12.878 50.911 9.656 50.911 40.313 50.911 72.045 32.666 94.425 0 94.425" fill="#231f20"/>
<path transform="matrix(1,0,0,-1,310.8664,356.7703)" d="M0 0H-32.374V35.258H0C12.36 35.258 19.716 28.819 19.716 17.629 19.716 6.593 12.36 0 0 0M13.389-8.123C26.781-3.372 33.99 6.131 33.99 19.467 33.99 35.562 21.63 48.594 1.176 48.594H-45.91V-58.709H-32.374V-13.336H-5.446C7.651-13.336 14.565-18.854 14.713-34.183 14.86-47.673 15.892-53.804 18.245-58.709H34.871V-56.563C30.752-51.812 30.163-46.598 29.723-34.337 29.281-20.08 23.835-12.262 13.389-8.123" fill="#231f20"/>
<path transform="matrix(1,0,0,-1,442.8696,321.5128)" d="M0 0V13.336H-86.227V0H-17.511L-86.964-80.63V-93.967H.734V-80.63H-69.601Z" fill="#231f20"/>
<path transform="matrix(1,0,0,-1,471.872,366.581)" d="M0 0H54.59V13.336H0V45.068H59.007V58.405H-13.536V-48.899H60.478V-35.562H0Z" fill="#231f20"/>
<path transform="matrix(1,0,0,-1,665.0872,308.1764)" d="M0 0-21.924-97.952-44.734 0H-68.277L-91.083-97.952-113.008 0H-127.281L-102.414-107.303H-79.899L-56.504-9.044-33.255-107.303H-10.597L14.274 0Z" fill="#231f20"/>
</g>
</g>
</svg>
