<svg xmlns="http://www.w3.org/2000/svg" xmlns:xlink="http://www.w3.org/1999/xlink" xmlns:inkscape="http://www.inkscape.org/namespaces/inkscape" version="1.1" width="1200" height="600" viewBox="0 0 1200 600">
<defs>
<clipPath id="clip_1">
<path transform="matrix(1,0,0,-1,0,600)" d="M0 600H1200V0H0Z"/>
</clipPath>
</defs>
<g inkscape:groupmode="layer" inkscape:label="Layer 1">
<path transform="matrix(1,0,0,-1,0,600)" d="M0 0H1200V600H0Z" fill="#ffffff"/>
<g clip-path="url(#clip_1)">
<path transform="matrix(1,0,0,-1,122.7998,302.4249)" d="M0 0C3.733 1.633 7.233 3.633 10.5 6 12.333 7.367 14.2 8.583 16.1 9.65 16.737 10.024 17.388 10.374 18.05 10.7 20.537 11.957 23.204 12.94 26.05 13.65 27.922 14.078 29.873 14.395 31.9 14.6 36.3 15 40.417 15.15 44.25 15.05 48.55 14.883 52.55 14.367 56.25 13.5 60.964 12.44 65.397 10.841 69.55 8.7 72.344 7.238 75.011 5.538 77.55 3.6 78.363 2.973 79.164 2.323 79.95 1.649 84.417-2.217 89.534-4.55 95.3-5.351 97.634-5.65 101.284-6.351 106.25-7.45 110.226-8.394 113.209-10.593 115.2-14.05 115.81-15.114 116.327-16.298 116.75-17.601 117.284-19.267 117.1-20.7 116.2-21.9 116.161-21.951 116.111-22.001 116.05-22.05 115.111-23.217 113.777-23.8 112.05-23.8H110.95C110.916-23.204 110.849-22.621 110.75-22.05 110.338-19.044 109.255-16.378 107.5-14.05 106.703-12.959 105.752-11.942 104.65-11 101.05-7.767 96.784-6.3 91.85-6.601 86.284-6.9 81.8-9.217 78.4-13.55 78.269-13.716 78.135-13.882 78-14.05 76.236-16.438 75.119-19.105 74.65-22.05 74.588-22.575 74.538-23.108 74.5-23.65H23.3C23.258-23.105 23.191-22.572 23.1-22.05 22.874-20.497 22.474-19.048 21.9-17.7 21.029-15.571 19.746-13.655 18.05-11.95 17.409-11.326 16.709-10.727 15.95-10.15 12.25-7.316 8.017-6.15 3.25-6.65-2.05-7.15-6.35-9.583-9.65-13.95-9.674-13.983-9.708-14.017-9.75-14.05-11.484-16.464-12.567-19.131-13-22.05-13.068-22.607-13.118-23.174-13.15-23.75-14.083-23.75-14.9-23.634-15.6-23.4-16.5-23.101-17.083-22.733-17.35-22.3-17.405-22.223-17.455-22.139-17.5-22.05-17.733-21.605-17.85-21.022-17.85-20.3L-17.45-16C-17.088-15.412-16.754-14.762-16.45-14.05-16.075-13.19-15.742-12.24-15.45-11.2-15.05-9.867-14.7-8.8-14.4-8-14.2-7.467-14.1-7.184-14.1-7.15L-14-7C-13.566-6.101-13.15-5.467-12.75-5.101-12.25-4.667-11.683-4.351-11.05-4.15-6.917-2.884-3.233-1.5 0 0M10.2-19.8C10.7-20.3 11.067-20.783 11.3-21.25 11.453-21.505 11.586-21.771 11.7-22.05 12.034-22.865 12.2-23.781 12.2-24.8V-24.9C12.2-26.8 11.483-28.467 10.05-29.9 8.684-31.267 7.034-31.95 5.1-31.95 3.833-31.884 2.8-31.667 2-31.3 1.233-30.934 .567-30.45 0-29.851-1.4-28.384-2.083-26.65-2.05-24.65-2.05-23.724-1.883-22.857-1.55-22.05-1.201-21.201-.667-20.418 .05-19.7 1.483-18.333 3.117-17.65 4.95-17.65H5.05C7.083-17.684 8.8-18.4 10.2-19.8M92.7-31.9C90.733-31.9 89.067-31.217 87.7-29.851 86.333-28.483 85.65-26.8 85.65-24.8 85.633-23.812 85.8-22.896 86.15-22.05 86.487-21.213 87.004-20.446 87.7-19.75 89.1-18.351 90.784-17.65 92.75-17.65 94.784-17.717 96.5-18.417 97.9-19.75 98.58-20.446 99.08-21.213 99.4-22.05 99.767-22.896 99.95-23.812 99.95-24.8 99.917-26.767 99.184-28.467 97.75-29.9 96.317-31.333 94.634-32 92.7-31.9M12.05 16.6C9.75 15.2 7.65 13.816 5.75 12.45 3.184 10.55 .184 8.816-3.25 7.25-6.15 5.95-9.55 4.7-13.45 3.5-15.316 2.867-16.917 1.934-18.25 .7-19.417-.434-20.4-1.833-21.2-3.5-21.7-4.4-22.333-6.233-23.1-9-23.395-9.964-23.678-10.73-23.95-11.3-24.139-11.695-24.322-11.995-24.5-12.2L-25.3-13.25V-14.4L-25.6-17.2C-25.733-18.667-25.8-19.601-25.8-20V-20.101C-25.833-22.733-25.2-25-23.9-26.9-22.843-28.353-21.426-29.503-19.65-30.351-19.168-30.597-18.668-30.813-18.15-31-16.55-31.5-14.883-31.75-13.15-31.75-12.583-31.816-11.133-31.783-8.8-31.65H-8.45C-7.783-33.017-6.883-34.267-5.75-35.4-4.483-36.7-3.033-37.75-1.4-38.55 .567-39.45 2.684-39.9 4.95-39.9 9.15-39.967 12.733-38.533 15.7-35.601 16.9-34.434 17.867-33.117 18.6-31.65H79.2C80.034-33.184 80.983-34.467 82.05-35.5 84.95-38.434 88.483-39.9 92.65-39.9L92.8-39.95C96.934-39.95 100.467-38.5 103.4-35.601 104.567-34.367 105.517-33.101 106.25-31.8H112.05C114.723-31.8 117.056-31.184 119.05-29.95 120.408-29.145 121.608-28.045 122.65-26.65 125.217-23.184 125.784-19.333 124.35-15.101 124.178-14.583 123.995-14.066 123.8-13.55 122.455-10.151 120.589-7.301 118.2-5 115.434-2.4 112.05-.634 108.05 .3 103.583 1.333 99.717 2.1 96.45 2.6 92.217 3.2 88.467 4.9 85.2 7.7 82.752 9.789 80.203 11.672 77.55 13.35 74.979 14.943 72.313 16.343 69.55 17.55 65.886 19.155 62.053 20.405 58.05 21.3 53.583 22.333 49.067 22.9 44.5 23 40.367 23.167 35.917 23.017 31.15 22.55 29.406 22.378 27.706 22.128 26.05 21.8 23.258 21.249 20.591 20.482 18.05 19.5 15.966 18.677 13.966 17.71 12.05 16.6M856.851 30.9C854.384 33.467 851.317 34.75 847.65 34.75H776.25C772.684 34.75 769.601 33.5 767 31 764.467 28.467 763.2 25.383 763.2 21.75 763.2 18.117 764.467 15.066 767 12.6 769.566 10.033 772.65 8.75 776.25 8.75H833C830.566-2.917 824.733-13.367 815.5-22.601 809.934-28.167 804-32.467 797.7-35.5 791.233-38.533 784.283-40.45 776.851-41.25 773.217-41.517 770.267-43.066 768-45.9 765.667-48.634 764.667-51.8 765-55.4 765.467-58.833 766.884-61.667 769.25-63.9 771.717-66.134 774.617-67.25 777.95-67.25L779.2-67.15C800.367-65.083 818.617-56.367 833.95-41 842.584-32.5 849.15-22.95 853.65-12.351 858.084-1.851 860.367 9.467 860.5 21.6 860.601 25.167 859.384 28.267 856.851 30.9M523.45 57C520.884 54.533 519.601 51.45 519.601 47.75V-14.101C519.667-28.867 524.917-41.5 535.351-52 542.117-58.7 550.316-63.483 559.95-66.351 561.217-66.717 562.45-66.9 563.65-66.9 566.384-66.9 568.983-66.05 571.45-64.351 573.816-62.517 575.4-60.2 576.2-57.4 577.167-53.967 576.767-50.667 575-47.5 573.267-44.367 570.684-42.283 567.25-41.25 561.851-39.65 557.351-37.066 553.75-33.5 551.084-30.833 549.084-27.867 547.75-24.601 546.384-21.467 545.7-17.934 545.7-14V47.75C545.7 51.417 544.45 54.5 541.95 57 539.417 59.5 536.3 60.75 532.601 60.75 529 60.75 525.95 59.5 523.45 57M240.55-23.101C234.784-17.367 230.317-10.417 227.15-2.25 225.817 1.083 223.5 3.5 220.2 5 216.9 6.467 213.567 6.517 210.2 5.15 206.8 3.85 204.384 1.583 202.95-1.65 201.55-4.917 201.467-8.25 202.7-11.65 206.567-21.55 211.9-30.333 218.7-38 219.134-38.667 219.667-39.283 220.3-39.851L221.95-41.65C230.817-50.583 240.684-57.283 251.55-61.75 262.317-66.25 273.95-68.5 286.45-68.5 299.05-68.5 310.717-66.25 321.45-61.75 332.217-57.316 342.083-50.617 351.05-41.65 353.617-39.15 356-36.483 358.2-33.65 360.5-30.917 361.417-27.75 360.95-24.15 360.55-20.617 358.95-17.7 356.15-15.4 353.384-13.167 350.184-12.25 346.55-12.65 342.983-13.017 340.1-14.601 337.9-17.4 336.467-19.167 334.684-21.117 332.55-23.25 323.817-32.05 313.867-37.8 302.7-40.5 302.034-40.5 301.367-40.617 300.7-40.851 296-41.684 291.25-42.101 286.45-42.101 277.483-42.101 269.184-40.533 261.55-37.4 253.95-34.333 246.95-29.566 240.55-23.101M408.65 97C407.583 98.267 406.284 99.333 404.75 100.2 403.083 100.733 401.467 101 399.9 101 398.134 101 396.4 100.733 394.7 100.2 393.2 99.333 391.833 98.267 390.6 97 389.367 95.867 388.4 94.566 387.7 93.1 386.967 91.433 386.6 89.733 386.6 88 386.6 86.267 386.967 84.617 387.7 83.05 388.4 81.45 389.367 80.033 390.6 78.8 391.8 77.8 393.167 76.967 394.7 76.3 396.3 75.6 398.034 75.25 399.9 75.25 401.6 75.25 403.217 75.6 404.75 76.3 406.317 76.967 407.617 77.8 408.65 78.8 410.017 80.066 410.967 81.483 411.5 83.05 412.1 84.65 412.4 86.3 412.4 88 412.4 89.633 412.1 91.333 411.5 93.1 410.967 94.467 410.017 95.767 408.65 97" fill="#167b2f"/>
<path transform="matrix(1,0,0,-1,148.8501,220.9249)" d="M0 0C0 1.066-.4 2-1.2 2.8L-15.95 17.6C-4.117 23.767 9.033 26.85 23.5 26.85 30.5 26.85 37.167 26.15 43.5 24.75V-25.65L24.45-6.6C23.65-5.8 22.717-5.4 21.65-5.4 20.55-5.4 19.6-5.8 18.8-6.6L0-25.4ZM105.75-31.9C108.683-40.667 110.15-49.934 110.15-59.7 110.15-69.534 108.683-78.85 105.75-87.65V-31.9M-63.1-59.7C-63.1-49.034-61.4-39.067-58-29.8V-89.65C-61.4-80.417-63.1-70.434-63.1-59.7M51.5 50.6H97.75V-95.05C97.944-95.566 98.127-96.083 98.3-96.601 99.733-100.833 99.167-104.684 96.6-108.15 95.558-109.545 94.357-110.645 93-111.45L92.5-112.15C90.167-115.217 87.583-118.15 84.75-120.95 67.816-137.884 47.4-146.351 23.5-146.351-.367-146.351-20.767-137.884-37.7-120.95-40.63-118-43.297-114.967-45.7-111.851-47.477-111.003-48.894-109.853-49.95-108.4-51.25-106.5-51.883-104.233-51.85-101.601V-101.5C-51.85-101.101-51.783-100.167-51.65-98.7L-51.35-95.9V-94.75L-50.55-93.7C-50.373-93.495-50.189-93.195-50-92.8V40.3L-8-1.7V-62C-5.459-61.018-2.792-60.251 0-59.7V-36.75L21.65-15.1 43.5-37V-63.95C46.263-65.157 48.929-66.557 51.5-68.15V50.6M43.5 54.6V32.9C37.1 34.2 30.433 34.85 23.5 34.85 6.8 34.85-8.317 31.066-21.85 23.5L-51.2 52.8C-51.767 53.367-52.45 53.733-53.25 53.9-54.05 54.066-54.817 53.983-55.55 53.65-56.283 53.35-56.883 52.867-57.35 52.2-57.783 51.533-58 50.8-58 50V-11.4C-60.1-14.867-61.917-18.333-63.45-21.8-68.55-33.5-71.1-46.133-71.1-59.7-71.1-73.3-68.55-85.95-63.45-97.65-61.75-101.483-59.733-105.283-57.4-109.05-53.633-115.15-48.95-121-43.35-126.601-24.85-145.101-2.567-154.351 23.5-154.351 49.6-154.351 71.9-145.101 90.4-126.601 93.533-123.467 96.35-120.283 98.85-117.05L100.1-115.5 106.25-106.05 108.8-101.351V-101.3C115.033-88.667 118.15-74.8 118.15-59.7 118.15-43.067 114.35-27.95 106.75-14.35L105.75-12.55V54.6C105.75 55.7 105.367 56.633 104.6 57.4 103.833 58.2 102.883 58.6 101.75 58.6H47.5C46.4 58.6 45.467 58.2 44.7 57.4 43.9 56.633 43.5 55.7 43.5 54.6M887.55-50.1C893.617-46.633 900.367-44.817 907.8-44.65 915.2-44.817 921.833-46.633 927.7-50.1 933.766-53.7 938.6-58.5 942.2-64.5 945.6-70.667 947.3-77.383 947.3-84.65 947.3-91.851 945.6-98.5 942.2-104.601 938.466-110.667 933.633-115.384 927.7-118.75 921.9-122.316 915.267-124.233 907.8-124.5 900.267-124.233 893.517-122.316 887.55-118.75 881.85-115.384 877.133-110.667 873.4-104.601 869.833-98.566 868.05-91.917 868.05-84.65 868.05-77.317 869.833-70.6 873.4-64.5 877.167-58.367 881.883-53.567 887.55-50.1M941.05-27.9C930.883-22.067 919.8-19.067 907.8-18.9 895.466-19.067 884.433-22.067 874.7-27.9 864.766-33.767 856.933-41.633 851.2-51.5 845.466-61.367 842.5-72.417 842.3-84.65 842.5-96.816 845.466-107.816 851.2-117.65 856.966-127.65 864.8-135.483 874.7-141.15 884.433-147.017 895.466-150.083 907.8-150.351 919.9-150.117 930.983-147.05 941.05-141.15 950.683-135.483 958.4-127.65 964.2-117.65 970.133-107.816 973.2-96.816 973.4-84.65 973.2-72.417 970.133-61.367 964.2-51.5 958.433-41.667 950.716-33.8 941.05-27.9M816.05-3.65C813.583-.517 810.867 2.533 807.9 5.5 799.966 13.467 791.2 19.667 781.6 24.1 772.233 28.5 761.933 31.05 750.7 31.75 746.133 32.15 741.6 32.15 737.1 31.75 715 30.35 695.9 21.6 679.8 5.5 670.966-3.333 664.383-13.083 660.05-23.75 655.617-34.45 653.4-46 653.4-58.4 653.4-70.934 655.617-82.55 660.05-93.25 664.383-103.983 670.966-113.733 679.8-122.5 691.5-134.2 704.867-142.066 719.9-146.101 720.833-146.367 721.966-146.5 723.3-146.5 726.2-146.5 728.784-145.617 731.05-143.851 733.45-141.983 735.034-139.65 735.8-136.851 736.766-133.351 736.367-130.066 734.6-127 732.767-123.833 730.1-121.75 726.6-120.75 716.133-118.017 706.667-112.467 698.2-104.101 691.933-97.733 687.25-90.816 684.15-83.351 681.016-75.783 679.45-67.467 679.45-58.4 679.45-49.434 681.016-41.217 684.15-33.75 687.284-26.15 691.966-19.2 698.2-12.9 704.1-7.067 710.383-2.65 717.05 .35 723.784 3.483 731.067 5.3 738.9 5.8 742.233 6.033 745.567 6.033 748.9 5.8 756.733 5.3 764.05 3.483 770.85 .35 777.617-2.717 783.817-7.133 789.45-12.9 791.617-15.067 793.667-17.317 795.6-19.65 797.7-22.45 800.55-24.1 804.15-24.6 807.75-25 810.966-24.133 813.8-22 816.633-19.733 818.25-16.817 818.65-13.25 819.15-9.684 818.284-6.483 816.05-3.65M578.65-24.5C576.183-27.033 574.95-30.117 574.95-33.75V-96.4C574.917-100 574.233-103.367 572.9-106.5 571.534-109.5 569.55-112.3 566.95-114.9 566.45-115.434 563.417-118.05 557.85-122.75 555.15-125.117 553.667-128.083 553.4-131.65 553.1-135.283 554.117-138.45 556.45-141.15 558.817-143.95 561.8-145.45 565.4-145.65 568.966-145.95 572.133-144.95 574.9-142.65L574.95-142.4V-164C574.817-168.267 573.85-172.134 572.05-175.601 571.25-177.134 570.034-178.9 568.4-180.9L566.85-182.5C564.017-185.367 561.034-187.417 557.9-188.65 554.8-189.983 551.284-190.65 547.35-190.65 543.35-190.65 539.8-189.983 536.7-188.65 533.567-187.417 530.567-185.367 527.7-182.5 525.534-180.367 523.817-178 522.55-175.4 520.883-172.2 518.35-170.033 514.95-168.9 511.516-167.767 508.167-168.017 504.9-169.65 501.733-171.316 499.567-173.851 498.4-177.25 497.367-180.684 497.617-184.017 499.15-187.25 501.817-192.351 505.2-196.934 509.3-201 519.766-211.5 532.45-216.75 547.35-216.75 562.15-216.75 574.8-211.5 585.3-201L588.1-198H588.15C590.85-194.767 593.2-191.316 595.2-187.65 598.9-180.517 600.817-172.767 600.95-164.4L601.1-164V-33.75C601.1-30.083 599.8-27 597.2-24.5 594.7-22 591.617-20.75 587.95-20.75 584.35-20.75 581.25-22 578.65-24.5M486.1-32.15C485.9-28.517 484.583-25.55 482.15-23.25 479.683-20.85 476.65-19.567 473.05-19.4H454.55V32.85C454.417 36.45 453.083 39.483 450.55 41.95 448.15 44.35 445.15 45.55 441.55 45.55 437.983 45.55 434.95 44.35 432.45 41.95 429.95 39.45 428.7 36.417 428.7 32.85V-19.4H410.05C406.316-19.533 403.267-20.817 400.9-23.25 398.467-25.583 397.133-28.55 396.9-32.15 397.133-35.684 398.467-38.684 400.9-41.15 403.167-43.817 406.217-45.15 410.05-45.15H428.7V-137.15C428.7-140.65 429.95-143.816 432.45-146.65 434.983-149.117 438.017-150.351 441.55-150.351 445.283-150.351 448.283-149.117 450.55-146.65 453.083-143.783 454.417-140.617 454.55-137.15V-45.15H473.05C476.883-45.15 479.917-43.817 482.15-41.15 484.583-38.717 485.9-35.717 486.1-32.15M285.5 1.55C293.167-1.583 300.167-6.35 306.5-12.75 309.7-15.917 312.45-19.25 314.75-22.75 316.85-25.717 319.65-27.517 323.15-28.15 326.717-28.817 329.967-28.15 332.9-26.15 335.9-24.083 337.733-21.25 338.4-17.65 339-14.117 338.283-10.9 336.25-8 332.95-3.1 329.2 1.483 325 5.75 315.967 14.617 306.1 21.283 295.4 25.75 284.7 30.15 273.033 32.35 260.4 32.35 247.9 32.35 236.267 30.15 225.5 25.75 214.7 21.25 204.833 14.583 195.9 5.75 187.333-2.883 180.7-12.767 176-23.9 171.367-35 168.783-47.117 168.25-60.25 168.117-63.917 169.283-67.033 171.75-69.6 174.183-72.333 177.15-73.75 180.65-73.85H181.25C184.683-73.85 187.717-72.617 190.35-70.15 192.85-67.75 194.15-64.817 194.25-61.35 194.717-51.25 196.6-42.267 199.9-34.4 203.2-26.333 208.033-19.117 214.4-12.75 220.767-6.35 227.8-1.583 235.5 1.55 242.967 4.717 251.267 6.3 260.4 6.3 269.6 6.3 277.967 4.717 285.5 1.55M364.55-23.15C361.983-25.617 360.65-28.617 360.55-32.15V-137.15C360.65-140.917 361.983-144.083 364.55-146.65 366.75-149.117 369.85-150.351 373.85-150.351 377.183-150.351 380.1-149.117 382.6-146.65 385.1-144.117 386.35-140.95 386.35-137.15V-32.15C386.35-28.617 385.1-25.617 382.6-23.15 380.1-20.65 377.183-19.4 373.85-19.4 369.85-19.4 366.75-20.65 364.55-23.15" fill="#414141"/>
</g>
</g>
</svg>
