<svg xmlns="http://www.w3.org/2000/svg" xmlns:xlink="http://www.w3.org/1999/xlink" xmlns:inkscape="http://www.inkscape.org/namespaces/inkscape" version="1.1" width="1000" height="1000" viewBox="0 0 1000 1000">
<defs>
<clipPath id="clip_1">
<path transform="matrix(1,0,0,-1,0,1000)" d="M0 1000H1000V0H0Z"/>
</clipPath>
</defs>
<g inkscape:groupmode="layer" inkscape:label="Layer 1">
<g clip-path="url(#clip_1)">
<path transform="matrix(1,0,0,-1,966,290.23439)" d="M0 0C0 1.54-.106 3.08-.318 4.619-.318 5.416-.398 6.105-.558 6.689-1.778 18.21-6.77 28.298-15.529 36.952-25.563 47.146-37.802 52.242-52.242 52.242-66.524 52.242-78.868 47.146-89.273 36.952-99.255 26.758-104.245 14.441-104.246 0-104.245-14.334-99.255-26.599-89.273-36.792-78.868-46.933-66.524-52.003-52.242-52.003-37.802-52.003-25.563-46.933-15.529-36.792-6.345-27.82-1.274-17.148-.318-4.778-.106-3.186 0-1.593 0 0M-62.197-157.205C-62.197-142.87-67.294-130.632-77.487-120.492-87.681-110.298-99.998-105.201-114.439-105.201-128.774-105.201-141.012-110.298-151.152-120.492-161.346-130.632-166.442-142.87-166.442-157.205-166.442-171.646-161.346-183.963-151.152-194.157-141.012-204.35-128.774-209.447-114.439-209.447-99.998-209.447-87.681-204.35-77.487-194.157-75.895-192.405-74.435-190.652-73.107-188.9-67.055-181.468-63.524-173.053-62.516-163.655-62.303-161.479-62.197-159.329-62.197-157.205M-213.429-483.72H-189.697L-147.409-380.031-239.63-120.492-309.791 55.109H-431.637L-213.429-483.72M-659.48-44.438C-624.28-44.81-595.026-52.826-571.719-68.488-548.199-84.15-530.467-104.405-518.521-129.252-506.788-153.939-500.921-180.087-500.921-207.695-500.921-235.303-506.788-261.53-518.521-286.377-530.467-311.012-548.199-331.187-571.719-346.901-595.026-362.299-624.28-370.315-659.48-370.952H-664.178C-666.355-370.74-668.426-370.634-670.39-370.634V-479.896C-666.833-480.109-663.196-480.215-659.48-480.215-607.609-479.578-563.171-469.49-526.167-449.953-489.002-430.362-459.351-404.506-437.211-372.386-414.912-339.946-400.047-304.534-392.614-266.149-385.34-227.392-385.34-188.715-392.614-150.117-400.047-111.572-414.912-76.054-437.211-43.562-459.351-11.441-489.002 14.309-526.167 33.687-563.171 53.49-607.609 63.657-659.48 64.188-711.563 63.657-756 53.49-792.793 33.687-830.011 14.309-859.769-11.441-882.067-43.562-904.207-76.054-918.993-111.572-926.425-150.117-929.133-164.611-930.779-179.105-931.363-193.599-931.575-194.767-931.682-195.935-931.682-197.103-931.894-200.66-932-204.191-932-207.695H-817.799C-817.799-206.103-817.693-204.536-817.481-202.997V-200.289C-816.525-175.495-810.738-151.816-800.12-129.252-788.387-104.405-770.866-84.15-747.559-68.488-724.092-52.826-694.733-44.81-659.48-44.438"/>
</g>
</g>
</svg>
