<svg width="210" height="89" viewBox="0 0 210 89" fill="none" xmlns="http://www.w3.org/2000/svg">
<g clip-path="url(#clip0_211_5149)">
<path d="M111.404 25.5998C110.195 24.9146 108.644 24.3229 106.752 23.7934L103.868 22.9214C102.999 22.6411 102.317 22.3608 101.821 22.0805C101.325 21.8001 100.983 21.4887 100.766 21.115C100.549 20.7412 100.425 20.3052 100.425 19.7757C100.425 19.2463 100.549 18.8103 100.828 18.4365C101.108 18.0628 101.511 17.8136 102.069 17.6267C102.627 17.4399 103.31 17.3464 104.116 17.3464C104.922 17.3464 105.636 17.4399 106.194 17.6579C106.752 17.8448 107.217 18.1874 107.59 18.6234C107.962 19.0594 108.21 19.6512 108.396 20.3986L114.723 19.7134C114.382 18.0316 113.793 16.6301 112.924 15.54C112.056 14.45 110.908 13.6714 109.481 13.1419C108.024 12.6124 106.256 12.3633 104.178 12.3633C101.914 12.3633 100.022 12.6747 98.4403 13.2665C96.8585 13.8582 95.649 14.7614 94.8116 15.9449C93.9742 17.1284 93.571 18.5922 93.571 20.3052C93.571 21.8313 93.8811 23.1394 94.4704 24.2294C95.0597 25.3195 95.9281 26.1604 97.0136 26.8456C98.0991 27.5308 99.4638 28.0914 101.046 28.5274L104.457 29.4929C105.357 29.7732 106.07 30.0535 106.597 30.3338C107.124 30.6141 107.528 30.9567 107.807 31.3616C108.055 31.7665 108.21 32.2648 108.21 32.8254C108.21 33.386 108.055 33.8843 107.776 34.2892C107.466 34.6941 107 35.0055 106.38 35.1924C105.76 35.4104 104.984 35.5038 104.054 35.5038C103.123 35.5038 102.379 35.3793 101.759 35.1613C101.139 34.9432 100.642 34.5695 100.239 34.04C99.867 33.5417 99.5878 32.8565 99.4328 32.0156L92.8887 32.732C93.1988 34.5695 93.8191 36.0645 94.7185 37.248C95.618 38.4315 96.8585 39.2724 98.3783 39.8018C99.898 40.3313 101.728 40.6116 103.899 40.6116C106.225 40.6116 108.21 40.3001 109.885 39.6461C111.559 38.9921 112.831 38.0266 113.73 36.7496C114.63 35.4727 115.095 33.8843 115.095 31.9845C115.095 30.4584 114.785 29.1815 114.165 28.1225C113.544 27.0636 112.645 26.1916 111.435 25.5064L111.404 25.5998Z" fill="#042A2B"/>
<path d="M130.044 40.1766L132.494 27.0646C132.867 25.0402 133.239 22.8912 133.549 20.6488C133.642 20.0259 133.735 19.4342 133.828 18.8424C133.921 19.4653 134.014 20.0571 134.138 20.68C134.51 22.9535 134.914 25.1025 135.317 27.0958L137.984 40.1766H146.327L152.747 12.9561H146.11L143.753 24.5419C143.349 26.5663 142.977 28.7465 142.667 31.1135C142.419 32.8264 142.202 34.6017 141.985 36.3769C141.799 34.664 141.613 32.951 141.396 31.238C141.085 28.8087 140.775 26.5975 140.372 24.5731L138.201 12.9561H129.796L127.625 24.5731C127.253 26.5352 126.943 28.7153 126.664 31.1446C126.447 32.8576 126.26 34.5705 126.105 36.2835C125.888 34.4771 125.671 32.7018 125.423 31.02C125.082 28.653 124.71 26.504 124.307 24.6042L121.918 12.9872H115.281L121.701 40.2077H130.013L130.044 40.1766Z" fill="#042A2B"/>
<path d="M161.338 12.9248H154.639V40.1453H161.338V12.9248Z" fill="#042A2B"/>
<path d="M177.652 35.2556C177.031 35.4736 176.256 35.567 175.325 35.567C174.395 35.567 173.651 35.4424 173.03 35.2244C172.41 35.0064 171.914 34.6327 171.511 34.1032C171.138 33.6049 170.859 32.9197 170.704 32.0788L164.16 32.7951C164.47 34.6327 165.091 36.1276 165.99 37.3111C166.889 38.4946 168.13 39.3355 169.65 39.865C171.169 40.3945 172.999 40.6748 175.17 40.6748C177.496 40.6748 179.481 40.3633 181.156 39.7093C182.831 39.0552 184.103 38.0897 185.002 36.8128C185.901 35.5359 186.367 33.9475 186.367 32.0477C186.367 30.5216 186.056 29.2446 185.436 28.1857C184.816 27.1268 183.916 26.2547 182.707 25.5695C181.497 24.8844 179.947 24.2926 178.055 23.7631L175.17 22.8911C174.302 22.6108 173.62 22.3305 173.123 22.0502C172.627 21.7699 172.286 21.4584 172.069 21.0847C171.852 20.711 171.728 20.2749 171.728 19.7455C171.728 19.216 171.852 18.78 172.131 18.4062C172.41 18.0325 172.813 17.7833 173.372 17.5965C173.93 17.4096 174.612 17.3162 175.418 17.3162C176.225 17.3162 176.938 17.4096 177.496 17.6276C178.055 17.8145 178.52 18.1571 178.892 18.5931C179.264 19.0291 179.512 19.6209 179.698 20.3684L186.025 19.6832C185.684 18.0014 185.095 16.5998 184.227 15.5098C183.358 14.4197 182.211 13.6411 180.784 13.1116C179.326 12.5822 177.558 12.333 175.48 12.333C173.216 12.333 171.325 12.6445 169.743 13.2362C168.161 13.828 166.951 14.7312 166.114 15.9147C165.277 17.0982 164.873 18.562 164.873 20.2749C164.873 21.801 165.184 23.1091 165.773 24.1992C166.362 25.2892 167.231 26.1301 168.316 26.8153C169.402 27.5005 170.766 28.0611 172.348 28.4972L175.76 29.4626C176.659 29.7429 177.372 30.0232 177.9 30.3035C178.427 30.5839 178.83 30.9264 179.109 31.3313C179.357 31.7362 179.512 32.2345 179.512 32.7951C179.512 33.3557 179.357 33.8541 179.078 34.2589C178.768 34.6638 178.303 34.9753 177.683 35.1621L177.652 35.2556Z" fill="#042A2B"/>
<path d="M209.069 28.1857C208.449 27.1268 207.55 26.2547 206.34 25.5695C205.13 24.8844 203.58 24.2926 201.688 23.7631L198.803 22.8911C197.935 22.6108 197.253 22.3305 196.756 22.0502C196.26 21.7699 195.919 21.4584 195.702 21.0847C195.485 20.711 195.361 20.2749 195.361 19.7455C195.361 19.216 195.485 18.78 195.764 18.4062C196.043 18.0325 196.446 17.7833 197.005 17.5965C197.563 17.4096 198.245 17.3162 199.052 17.3162C199.858 17.3162 200.571 17.4096 201.129 17.6276C201.688 17.8145 202.153 18.1571 202.525 18.5931C202.897 19.0291 203.145 19.6209 203.332 20.3684L209.659 19.6832C209.317 18.0014 208.728 16.5998 207.86 15.5098C206.991 14.4197 205.844 13.6411 204.417 13.1116C202.959 12.5822 201.192 12.333 199.114 12.333C196.849 12.333 194.958 12.6445 193.376 13.2362C191.794 13.828 190.585 14.7312 189.747 15.9147C188.91 17.0982 188.507 18.562 188.507 20.2749C188.507 21.801 188.817 23.1091 189.406 24.1992C189.995 25.2892 190.864 26.1301 191.949 26.8153C193.035 27.5005 194.399 28.0611 195.981 28.4971L199.393 29.4626C200.292 29.7429 201.005 30.0232 201.533 30.3035C202.06 30.5838 202.463 30.9264 202.742 31.3313C202.99 31.7362 203.145 32.2345 203.145 32.7951C203.145 33.3557 202.99 33.854 202.711 34.2589C202.401 34.6638 201.936 34.9753 201.316 35.1621C200.695 35.3801 199.92 35.4736 198.989 35.4736C198.059 35.4736 197.315 35.349 196.694 35.131C196.074 34.913 195.578 34.5392 195.175 34.0098C194.803 33.5115 194.523 32.8263 194.368 31.9854L187.824 32.7017C188.134 34.5392 188.755 36.0342 189.654 37.2177C190.554 38.4012 191.794 39.2421 193.314 39.7716C194.834 40.301 196.663 40.5813 198.834 40.5813C201.161 40.5813 203.145 40.2699 204.82 39.6158C206.495 38.9618 207.767 37.9963 208.666 36.7194C209.565 35.4424 210.031 33.854 210.031 31.9542C210.031 30.4281 209.721 29.1512 209.1 28.0923L209.069 28.1857Z" fill="#042A2B"/>
<path d="M93.8501 52.9772H101.077V74.3114H107.807V52.9772H115.095V47.0908H93.8501V52.9772Z" fill="#042A2B"/>
<path d="M139.503 72.2557C139.441 71.9131 139.379 71.5394 139.348 71.1968L138.604 66.6185C138.418 65.3727 138.046 64.3761 137.518 63.6286C136.991 62.85 136.247 62.2582 135.254 61.8533C134.758 61.6353 134.231 61.4796 133.611 61.3862C134.448 61.137 135.223 60.8567 135.906 60.483C137.084 59.8601 137.953 59.0192 138.573 57.9602C139.193 56.9325 139.503 55.6867 139.503 54.254C139.503 52.6033 139.193 51.2641 138.542 50.2052C137.891 49.1463 136.991 48.3677 135.751 47.8382C134.51 47.3087 133.021 47.0596 131.222 47.0596H118.01V74.2801H124.709V64.2826H128.71C129.703 64.2826 130.447 64.4072 130.943 64.6564C131.44 64.9055 131.812 65.2793 132.029 65.7776C132.246 66.2759 132.432 66.9922 132.556 67.9577L132.99 71.3836C132.99 71.3836 132.99 71.5394 133.021 71.6017C133.021 71.6951 133.021 71.7574 133.052 71.8508C133.083 72.2557 133.145 72.6606 133.207 73.0966C133.269 73.5015 133.331 73.9064 133.394 74.3113H139.876C139.814 73.9687 139.752 73.6261 139.689 73.2835C139.627 72.9409 139.565 72.5983 139.503 72.2557ZM130.602 58.6454C129.982 58.8634 129.238 58.988 128.338 58.988H124.709V52.4788H128.927C129.703 52.4788 130.385 52.5722 130.912 52.7591C131.44 52.9459 131.843 53.2574 132.122 53.6934C132.401 54.1294 132.556 54.7212 132.556 55.4998C132.556 56.3407 132.401 57.0259 132.06 57.5554C131.719 58.0848 131.253 58.4274 130.633 58.6766L130.602 58.6454Z" fill="#042A2B"/>
<path d="M149.428 63.255H160.314V57.6489H149.428V52.9772H161.462V47.0908H142.729V74.3114H161.493V68.425H149.428V63.255Z" fill="#042A2B"/>
<path d="M171.045 63.255H181.931V57.6489H171.045V52.9772H183.048V47.0908H164.346V74.3114H183.079V68.425H171.045V63.255Z" fill="#042A2B"/>
<path d="M198.338 59.6418L198.276 58.3337C198.276 57.8042 198.152 57.3993 197.997 57.0879C197.842 56.7764 197.594 56.5584 197.253 56.3716C197.036 56.2781 196.757 56.1847 196.447 56.1535C196.788 56.0913 197.067 55.9978 197.315 55.8421C197.718 55.6241 197.997 55.3438 198.183 54.97C198.37 54.5963 198.463 54.1603 198.463 53.662C198.463 53.0702 198.338 52.603 198.09 52.1982C197.842 51.7933 197.439 51.513 196.943 51.3261C196.447 51.1392 195.795 51.0146 195.051 51.0146H191.019V60.763H193.283V57.0567H194.772C195.051 57.0567 195.268 57.0879 195.423 57.1813C195.578 57.2436 195.702 57.3993 195.795 57.5862C195.888 57.7731 195.919 58.0222 195.95 58.3648L196.043 59.6418C196.043 59.8909 196.043 60.1089 196.105 60.2647C196.167 60.4204 196.198 60.6072 196.261 60.763H198.711C198.711 60.763 198.525 60.4827 198.494 60.3269C198.432 60.1401 198.401 59.9221 198.37 59.6418H198.338ZM195.454 55.2503C195.237 55.3438 195.02 55.3749 194.741 55.3749H193.252V52.821H194.772C195.02 52.821 195.268 52.8522 195.454 52.9456C195.64 53.0391 195.826 53.1636 195.95 53.3505C196.074 53.5374 196.136 53.7865 196.136 54.0668C196.136 54.3471 196.074 54.6274 195.95 54.7832C195.826 54.9389 195.671 55.0946 195.454 55.1881V55.2503Z" fill="#042A2B"/>
<path d="M199.207 47.7138C197.811 46.904 196.261 46.5303 194.555 46.5303C192.849 46.5303 191.267 46.9352 189.872 47.7449C188.476 48.5547 187.39 49.6759 186.615 51.1086C185.809 52.5412 185.437 54.1919 185.437 56.0294C185.437 57.867 185.84 59.4865 186.615 60.9192C187.421 62.3518 188.507 63.473 189.872 64.2517C191.267 65.0614 192.818 65.4352 194.555 65.4352C196.292 65.4352 197.842 65.0303 199.207 64.2517C200.572 63.473 201.688 62.3518 202.495 60.9192C203.301 59.4865 203.673 57.867 203.673 56.0294C203.673 54.1919 203.27 52.5412 202.495 51.1086C201.688 49.6759 200.603 48.5547 199.238 47.7449L199.207 47.7138ZM200.479 59.8291C199.889 60.9192 199.083 61.7912 198.059 62.383C197.036 62.9747 195.857 63.2862 194.555 63.2862C193.252 63.2862 192.074 62.9747 191.05 62.383C190.027 61.7912 189.22 60.9503 188.631 59.8291C188.042 58.739 187.763 57.4621 187.763 55.9983C187.763 54.5345 188.042 53.2264 188.631 52.1363C189.22 51.0463 190.027 50.1742 191.05 49.5825C192.074 48.9907 193.252 48.6793 194.555 48.6793C195.857 48.6793 197.036 48.9907 198.059 49.5825C199.083 50.1742 199.889 51.0463 200.479 52.1363C201.068 53.2575 201.347 54.5345 201.347 55.9983C201.347 57.4621 201.068 58.7079 200.479 59.8291Z" fill="#042A2B"/>
<path d="M80.4829 27.0025L40.257 0L0 27.0025V74.3426H31.1387L29.9601 88.2955H50.5228L49.3443 74.3426H80.4829V27.0025ZM67.5809 61.3864H48.2588L47.1732 48.5236H33.2787L32.1932 61.3864H12.8711V33.9478L40.195 15.6035L67.5499 33.9478V61.3864H67.5809Z" fill="#042A2B"/>
</g>
<defs>
<clipPath id="clip0_211_5149">
<rect width="210" height="88.2955" fill="white"/>
</clipPath>
</defs>
</svg>
