<svg xmlns="http://www.w3.org/2000/svg" viewBox="0 0 280 52" role="img" aria-label="Polskie Centrum Wizowe">
  <defs>
    <clipPath id="globeClipFooter">
      <circle cx="23" cy="26" r="11" />
    </clipPath>
  </defs>

  <rect x="7" y="10" width="32" height="32" rx="7" fill="none" stroke="#EDF2F8" stroke-width="1.05" />

  <g clip-path="url(#globeClipFooter)">
    <circle cx="23" cy="26" r="11" fill="none" stroke="#EDF2F8" stroke-width="0.92" />
    <line x1="12" y1="26" x2="34" y2="26" stroke="#EDF2F8" stroke-width="0.8" />
    <path d="M12.4 21.1 Q23 19.4 33.6 21.1" fill="none" stroke="#EDF2F8" stroke-width="0.75" />
    <path d="M12.4 30.9 Q23 32.6 33.6 30.9" fill="none" stroke="#EDF2F8" stroke-width="0.75" />
    <line x1="23" y1="15" x2="23" y2="37" stroke="#EDF2F8" stroke-width="0.8" />
    <path d="M23 15 A5.8 11 0 0 0 23 37" fill="none" stroke="#EDF2F8" stroke-width="0.75" />
    <path d="M23 15 A5.8 11 0 0 1 23 37" fill="none" stroke="#EDF2F8" stroke-width="0.75" />
  </g>

  <line x1="50" y1="8" x2="50" y2="44" stroke="#E6EDF6" stroke-width="1" opacity="0.46" />

  <text x="61" y="19" font-family="'Manrope','Helvetica Neue',Arial,sans-serif" font-size="8.7" font-weight="600" letter-spacing="1.64" fill="#F6F9FC">POLSKIE</text>
  <text x="61" y="29" font-family="'Manrope','Helvetica Neue',Arial,sans-serif" font-size="8.7" font-weight="600" letter-spacing="1.64" fill="#F6F9FC">CENTRUM</text>
  <text x="61" y="39" font-family="'Manrope','Helvetica Neue',Arial,sans-serif" font-size="8.7" font-weight="600" letter-spacing="1.64" fill="#F6F9FC">WIZOWE</text>
  <line x1="61" y1="44" x2="106" y2="44" stroke="#C42021" stroke-width="1.3" />
</svg>
