<svg xmlns="http://www.w3.org/2000/svg" viewBox="0 0 380 92" role="img" aria-label="Polskie Centrum Wizowe">
  <defs>
    <clipPath id="globeClipDark">
      <circle cx="37" cy="45" r="15.5" />
    </clipPath>
  </defs>

  <rect x="10" y="18" width="54" height="54" rx="10" fill="none" stroke="#EDF2F8" stroke-width="1.2" />

  <g clip-path="url(#globeClipDark)">
    <circle cx="37" cy="45" r="15.5" fill="none" stroke="#EDF2F8" stroke-width="1.05" />
    <line x1="21.5" y1="45" x2="52.5" y2="45" stroke="#EDF2F8" stroke-width="0.95" />
    <path d="M22 38.2 Q37 35.8 52 38.2" fill="none" stroke="#EDF2F8" stroke-width="0.9" />
    <path d="M22 51.8 Q37 54.2 52 51.8" fill="none" stroke="#EDF2F8" stroke-width="0.9" />
    <line x1="37" y1="29.5" x2="37" y2="60.5" stroke="#EDF2F8" stroke-width="0.95" />
    <path d="M37 29.5 A8.3 15.5 0 0 0 37 60.5" fill="none" stroke="#EDF2F8" stroke-width="0.9" />
    <path d="M37 29.5 A8.3 15.5 0 0 1 37 60.5" fill="none" stroke="#EDF2F8" stroke-width="0.9" />
  </g>

  <line x1="82" y1="16" x2="82" y2="74" stroke="#E6EDF6" stroke-width="1" opacity="0.58" />

  <text x="139" y="34" font-family="'Manrope','Helvetica Neue',Arial,sans-serif" font-size="15" font-weight="600" letter-spacing="4.2" fill="#F6F9FC" text-anchor="middle">POLSKIE</text>
  <text x="139" y="50" font-family="'Manrope','Helvetica Neue',Arial,sans-serif" font-size="15" font-weight="600" letter-spacing="2.8" fill="#F6F9FC" text-anchor="middle">CENTRUM</text>
  <text x="139" y="66" font-family="'Manrope','Helvetica Neue',Arial,sans-serif" font-size="15" font-weight="600" letter-spacing="4.8" fill="#F6F9FC" text-anchor="middle">WIZOWE</text>
  <line x1="103" y1="75" x2="175" y2="75" stroke="#C42021" stroke-width="1.7" />
</svg>
