<svg xmlns="http://www.w3.org/2000/svg" viewBox="0 0 1200 630" role="img" aria-label="Polskie Centrum Wizowe">
  <defs>
    <clipPath id="pcw-og-globe">
      <circle cx="37" cy="45" r="15.5"/>
    </clipPath>
    <radialGradient id="pcw-og-glow" cx="0" cy="0" r="1" gradientUnits="userSpaceOnUse" gradientTransform="translate(885 155) rotate(128) scale(520 380)">
      <stop stop-color="#314D74" stop-opacity="0.6"/>
      <stop offset="1" stop-color="#041C2D" stop-opacity="0"/>
    </radialGradient>
  </defs>
  <rect width="1200" height="630" fill="#041C2D"/>
  <rect width="1200" height="630" fill="url(#pcw-og-glow)"/>
  <rect x="0" y="0" width="1200" height="6" fill="#C42021"/>

  <g transform="translate(86 94) scale(1.42)">
    <rect x="10" y="18" width="54" height="54" rx="10" fill="none" stroke="#EDF2F8" stroke-width="1.2"/>
    <g clip-path="url(#pcw-og-globe)">
      <circle cx="37" cy="45" r="15.5" fill="none" stroke="#EDF2F8" stroke-width="1.05"/>
      <line x1="21.5" y1="45" x2="52.5" y2="45" stroke="#EDF2F8" stroke-width="0.95"/>
      <path d="M22 38.2 Q37 35.8 52 38.2" fill="none" stroke="#EDF2F8" stroke-width="0.9"/>
      <path d="M22 51.8 Q37 54.2 52 51.8" fill="none" stroke="#EDF2F8" stroke-width="0.9"/>
      <line x1="37" y1="29.5" x2="37" y2="60.5" stroke="#EDF2F8" stroke-width="0.95"/>
      <path d="M37 29.5 A8.3 15.5 0 0 0 37 60.5" fill="none" stroke="#EDF2F8" stroke-width="0.9"/>
      <path d="M37 29.5 A8.3 15.5 0 0 1 37 60.5" fill="none" stroke="#EDF2F8" stroke-width="0.9"/>
    </g>
    <line x1="82" y1="16" x2="82" y2="74" stroke="#E6EDF6" stroke-width="1" opacity="0.58"/>
    <text x="103" y="34" font-family="Arial, Helvetica, sans-serif" font-size="15" font-weight="700" letter-spacing="4.2" fill="#F6F9FC">POLSKIE</text>
    <text x="103" y="50" font-family="Arial, Helvetica, sans-serif" font-size="15" font-weight="700" letter-spacing="2.8" fill="#F6F9FC">CENTRUM</text>
    <text x="103" y="66" font-family="Arial, Helvetica, sans-serif" font-size="15" font-weight="700" letter-spacing="4.8" fill="#F6F9FC">WIZOWE</text>
    <line x1="103" y1="75" x2="175" y2="75" stroke="#C42021" stroke-width="1.7"/>
  </g>

  <text x="86" y="338" font-family="Arial, Helvetica, sans-serif" font-size="78" font-weight="800" letter-spacing="8" fill="#F6F9FC">POLSKIE</text>
  <text x="86" y="420" font-family="Arial, Helvetica, sans-serif" font-size="78" font-weight="800" letter-spacing="5" fill="#F6F9FC">CENTRUM</text>
  <text x="86" y="502" font-family="Arial, Helvetica, sans-serif" font-size="78" font-weight="800" letter-spacing="9" fill="#F6F9FC">WIZOWE</text>
  <rect x="88" y="532" width="170" height="5" fill="#C42021"/>
  <text x="88" y="573" font-family="Arial, Helvetica, sans-serif" font-size="22" letter-spacing="1.2" fill="#D7E3F0" opacity="0.78">Doradztwo wizowe i migracyjne</text>

</svg>
